<svg width="160" height="32" viewBox="0 0 160 32" fill="none" xmlns="http://www.w3.org/2000/svg">
<g clip-path="url(#clip0_329_81)">
<path d="M39.8611 1.06787L28.3882 30.8404H36.3063L37.9852 26.1617H50.0904L51.7693 30.8404H59.6874L48.1834 1.06787H39.8611ZM40.286 19.7721L43.2812 11.1646C43.644 10.2035 43.8927 9.16846 44.0482 8.144C44.2036 9.16846 44.442 10.2035 44.8151 11.1646L47.8103 19.7721H40.286Z" fill="#181D27"/>
<path d="M149.957 15.3469L140.941 1.06787H130.691L140.111 15.3469L130.079 30.8404H139.075L145.014 20.8599L150.942 30.8404H160L149.957 15.3469Z" fill="#181D27"/>
<path d="M103.745 1.06787H92.189V30.8721H99.8998V21.5147H103.724C110.937 21.483 116.451 19.149 116.451 11.2913C116.441 3.43362 110.958 1.06787 103.745 1.06787ZM104.118 14.6921H99.8894V7.8694H104.108C106.46 7.8694 108.543 8.58758 108.543 11.2702C108.543 13.9422 106.471 14.6921 104.118 14.6921Z" fill="#181D27"/>
<path d="M150.258 0.881348H159.192V9.98526H150.258V0.881348Z" fill="#FF8800"/>
<path d="M19.0604 24.5139C18.4179 24.6723 17.7442 24.7357 17.0705 24.7357C13.7333 24.7357 8.41662 23.331 8.41662 15.9803C8.41662 9.86524 12.8835 7.37275 17.5887 7.37275C20.5217 7.37275 23.4651 8.21766 25.6623 9.7385V2.29272C22.7915 1.07816 19.7341 0.423359 16.6145 0.423359C8.44771 0.412797 0.498535 4.83802 0.498535 15.938C0.498535 26.7529 8.38553 31.4633 16.7078 31.4633C20.045 31.4316 23.3097 30.7768 26.3981 29.4672V14.47H19.0604V24.5139Z" fill="#181D27"/>
<path d="M81.2027 20.0252C84.4155 18.7156 86.7992 16.033 86.7992 11.0797C86.7992 3.22203 80.7466 1.04639 74.8081 1.04639H62.4854V30.8189H70.2272V21.1553H73.5644L80.5394 30.8506H89.2555L81.2027 20.0252ZM75.1501 14.7551H70.2272V7.86904H75.119C77.3265 7.86904 78.8189 9.02023 78.8189 11.3332C78.8189 13.6356 77.3576 14.7551 75.1501 14.7551Z" fill="#181D27"/>
<path d="M120.047 30.8404H127.789V1.06787H120.047V30.8404Z" fill="#181D27"/>
</g>
<defs>
<clipPath id="clip0_329_81">
<rect width="160" height="32" fill="white"/>
</clipPath>
</defs>
</svg>
