<svg width="44" height="43" viewBox="0 0 44 43" fill="none" xmlns="http://www.w3.org/2000/svg">
<g clip-path="url(#clip0_1_2172)">
<path d="M43.8299 21.097L31.5618 9.06978C31.3363 8.84816 30.9276 8.84816 30.702 9.06978L27.3702 12.336C27.1428 12.5588 27.1434 12.9145 27.3714 13.1367L33.018 18.6331H0.599972C0.268802 18.6331 0 18.8897 0 19.2058V23.7876C0 24.1038 0.268802 24.3603 0.599972 24.3603H33.018L27.3714 29.8567C27.1434 30.079 27.1428 30.4346 27.3702 30.6574L30.702 33.9237C30.8148 34.0342 30.9696 34.0966 31.1316 34.0966C31.2936 34.0966 31.4485 34.0342 31.5618 33.9237L43.8299 21.8965C44.0567 21.6737 44.0567 21.3192 43.8299 21.097Z" fill="#FF8800"/>
</g>
<defs>
<clipPath id="clip0_1_2172">
<rect width="44" height="42" fill="white" transform="translate(0 0.5)"/>
</clipPath>
</defs>
</svg>
