<svg width="556" height="830" viewBox="0 0 556 830" fill="none" xmlns="http://www.w3.org/2000/svg">
<path fill-rule="evenodd" clip-rule="evenodd" d="M97.6122 236.742H183.417V54.4582V0H0V226.909C0 233.716 3.93597 236.742 11.8079 236.742H97.6122Z" fill="#E50328"/>
<path fill-rule="evenodd" clip-rule="evenodd" d="M189.714 60.5092H436.107V236.742H308.581C304.645 236.742 301.496 238.255 299.134 241.28C296.773 244.306 296.773 247.331 298.347 251.113L425.872 593.745C427.446 599.04 431.384 602.065 436.107 602.065V832H320.388L97.6122 236.742H183.417V54.4582C183.417 58.9963 184.991 60.5092 189.714 60.5092Z" fill="#E50328"/>
<path d="M436.107 832H552.61L774.602 236.742H861.193C869.062 236.742 873 233.716 873 226.909V0H689.584V54.4582C689.584 58.9963 687.221 60.5092 682.498 60.5092H436.107V236.742H564.42C568.355 236.742 570.718 238.255 573.078 241.28C575.441 244.306 576.227 247.331 574.653 251.113L447.128 593.745C445.554 599.04 441.616 602.065 436.107 602.065V832Z" fill="#E50328"/>
</svg>
